<svg width="512" height="512" viewBox="0 0 128 128" xmlns="http://www.w3.org/2000/svg"><defs><linearGradient id="clapper-top-grad" x1="0.5" y1="0" x2="0.5" y2="1"><stop offset="0%" stop-color="#FEF08A"/><stop offset="100%" stop-color="#FDE047"/></linearGradient><linearGradient id="clapper-body-grad" x1="0.5" y1="0" x2="0.5" y2="1"><stop offset="0%" stop-color="#FEF9C3"/><stop offset="100%" stop-color="#FEF08A"/></linearGradient><filter id="glow"><feGaussianBlur stdDeviation="2.5" result="coloredBlur"/><feMerge><feMergeNode in="coloredBlur"/><feMergeNode in="SourceGraphic"/></feMerge></filter></defs><rect x="10" y="10" width="108" height="108" rx="24" ry="24" fill="#111827"/><rect x="14" y="14" width="100" height="100" rx="20" ry="20" fill="#000000"/><path d="M30 25 L32 20 L34 25 L39 27 L34 29 L32 34 L30 29 L25 27 Z" fill="#FEF08A" opacity="0.8" filter="url(#glow)"/><path d="M98 40 L100 35 L102 40 L107 42 L102 44 L100 49 L98 44 L93 42 Z" fill="#FEF9C3" opacity="0.9" filter="url(#glow)"/><path d="M28 98 L29 95 L30 98 L33 99 L30 100 L29 103 L28 100 L25 99 Z" fill="#FDE047" opacity="0.7"/><path d="M95 90 L96 87 L97 90 L100 91 L97 92 L96 95 L95 92 L92 91 Z" fill="#FEF08A" opacity="0.8"/><g transform="translate(24, 29)"><rect x="0" y="22" width="80" height="50" rx="5" ry="5" fill="url(#clapper-body-grad)"/><path d="M32 38 L52 50 L32 62 Z" fill="#111827"/><g transform="rotate(-10 0 9)"><path d="M0 0 H80 L75 18 H-5 Z" fill="url(#clapper-top-grad)"/><path d="M5 2 H18 L13 16 H0 z" fill="#1F2937"/><path d="M25 2 H38 L33 16 H20 z" fill="#1F2937"/><path d="M45 2 H58 L53 16 H40 z" fill="#1F2937"/><path d="M65 2 H78 L73 16 H60 z" fill="#1F2937"/></g></g></svg>